<svg width="56" height="56" viewBox="0 0 56 56" fill="none" xmlns="http://www.w3.org/2000/svg">
<g clip-path="url(#clip0_25_909)">
<rect x="0.00543213" y="0.00598145" width="56" height="56" rx="28" fill="#4682B4"/>
<path d="M61.4794 53.631C61.7454 50.7234 61.5984 47.5296 59.7354 45.2813C58.1874 43.4127 55.6984 42.5474 53.2774 42.3754C51.4304 42.2442 29.3126 42.3414 28.577 43.2099C27.8957 44.014 25.707 45.5746 25.1124 49.491C24.3986 54.191 22.7244 74.1215 24.0226 78.1539C26.6997 78.5818 51.7669 76.5629 55.6684 76.2637C55.7024 74.7914 61.0474 58.3692 61.4794 53.631Z" fill="#363C89"/>
<path d="M17.1651 37.906C11.2023 39.8112 9.90176 52.7492 9.24126 55.9222C8.51936 59.3903 7.35006 62.7653 5.77156 65.9368C4.97736 67.5325 4.09385 69.5139 5.12555 70.9673C5.77685 71.8849 7.00646 72.2141 8.13076 72.1702C10.3697 72.0827 12.4255 70.7768 13.8829 69.0755C15.3404 67.3738 16.2817 65.2986 17.1396 63.2289C19.6796 57.1009 21.0844 52.508 21.9202 45.9274C21.9664 45.5669 21.7646 36.4367 17.1651 37.906Z" fill="#D8702A"/>
<path d="M45.813 47.9112C45.0057 54.7575 40.5124 56.0091 40.2455 62.8977C40.0673 67.4946 42.4517 72.9663 44.1222 77.2526C33.6435 78.5222 22.9857 79.2419 15.1895 79.5713C14.9283 73.178 16.7478 64.5012 15.6147 58.2036C14.9651 54.5927 13.8717 51.2836 14.0775 47.6208C14.2833 43.9577 15.3968 38.5827 17.165 37.9063C20.6021 36.5917 23.4851 35.4259 27.507 34.6369C29.2636 34.2922 34.4216 33.3044 38.9674 33.5522C41.8228 33.7082 44.2581 34.0314 45.3059 34.3556C52.2384 36.4995 46.5115 41.9884 45.813 47.9112Z" fill="#ED7C2A"/>
<path d="M27.8102 42.109C27.1419 42.1169 23.8579 37.2705 24.021 36.6224C24.6354 34.807 26.2011 36.4518 26.5469 35.1156C26.823 34.0477 24.6194 29.4829 25.5267 28.1866C26.0685 27.4125 31.9068 24.6607 33.1515 26.6087C33.7384 27.5269 36.0001 31.6775 36.0962 32.7994C36.1522 33.4526 29.6814 42.087 27.8102 42.109Z" fill="#EAA27A"/>
<path d="M31.8244 65.6664C34.536 63.809 45.9574 57.5839 46.0384 57.3134C46.349 56.2766 39.8945 47.2954 39.3003 44.5336C38.7061 41.7714 38.5504 39.322 40.3783 37.1679C42.8096 34.3025 45.306 34.3555 45.306 34.3555C47.2063 34.8439 47.7461 35.4104 48.7682 36.2445C50.216 37.4258 51.1378 39.116 52.0234 40.7612C54.6364 45.6174 57.2624 50.5031 59.0094 55.7338C59.4874 57.1641 59.9004 58.7122 59.4824 60.1611C59.2014 61.1355 58.5654 61.972 57.8424 62.6828C54.9224 65.5534 50.6942 66.5455 46.6937 67.4183C42.5454 68.3235 38.2978 69.9138 34.1495 70.819C33.2962 71.0051 30.9646 66.2554 31.8244 65.6664Z" fill="#D8702A"/>
<path d="M39.0118 33.8569C39.1106 34.9717 38.315 36.107 37.9365 37.16C37.2961 38.9415 36.6555 40.7229 36.0148 42.5041C34.8939 41.2718 33.7732 40.0391 32.6523 38.8068C31.36 40.5058 29.6753 41.9047 27.7677 42.8629C26.7268 41.7315 25.6862 40.6001 24.6451 39.4684C24.3611 40.6422 23.9491 41.7853 23.4189 42.8705C22.6432 40.2416 21.912 37.2309 23.3638 34.9061C24.0521 33.8035 25.1999 32.9981 26.4709 32.7258C27.1022 34.3166 26.1385 36.0991 26.2968 37.8033C26.4253 39.1881 27.2769 40.3851 28.0987 41.507C28.9867 40.8331 29.8358 40.1073 30.6396 39.3346C31.0413 38.9486 31.4441 38.5315 31.6224 38.0036C31.7752 37.5519 31.7532 37.0456 31.9703 36.6213C32.194 36.1847 32.6317 35.9078 32.978 35.5602C34.402 34.1316 35.1643 31.5259 35.0422 30.1008C36.2319 29.9995 38.8227 31.7192 39.0118 33.8569Z" fill="#D8702A"/>
<path d="M27.8802 44.1471C26.9764 51.3624 26.1828 58.6853 27.2294 65.93C27.2798 66.2784 26.7349 66.3239 26.6849 65.9766C25.6315 58.6859 26.4333 51.3077 27.3425 44.0473C27.3862 43.6985 27.9238 43.7984 27.8802 44.1471Z" fill="#D8702A"/>
<path d="M23.2371 23.5688C23.5149 24.6792 23.5602 25.9096 23.0158 26.9164C22.4715 27.9233 21.206 28.5929 20.139 28.1788C18.767 27.6468 18.485 25.8494 18.5208 24.3784C18.5433 23.45 18.6206 22.4784 19.1144 21.6917C20.7624 19.0673 22.7786 21.7342 23.2371 23.5688Z" fill="#4B4DF6"/>
<path d="M32.4802 27.7035C31.5424 30.1213 29.4885 32.1603 26.9632 32.7491C25.9625 32.9823 24.8591 32.9762 23.965 32.4699C23.3668 32.1311 22.9066 31.5965 22.4913 31.0486C20.6401 28.6067 19.4372 25.6779 19.0371 22.6399C18.7215 20.2423 19.048 17.4853 20.9316 15.9687C22.3628 14.8165 24.33 14.6664 26.1648 14.565C27.1096 14.5128 28.0911 14.4664 28.9671 14.8247C29.8778 15.1973 30.5612 15.9614 31.2071 16.7045C33.5497 19.4005 33.7665 24.3879 32.4802 27.7035Z" fill="#FFBB8E"/>
<path d="M26.906 29.1709C26.1854 29.974 25.0812 30.3039 24.044 29.9819C23.7126 29.8789 23.8074 29.34 24.1439 29.4442C24.9979 29.7095 25.8854 29.4904 26.488 28.8186C26.7226 28.5571 27.1414 28.9083 26.906 29.1709Z" fill="#E28E60"/>
<path d="M27.1937 18.3042C27.0649 18.6156 27.0898 18.967 27.0256 19.2975C26.8872 20.0091 26.293 20.6102 25.5831 20.7565C24.8732 20.9029 24.0895 20.5858 23.6811 19.9869C23.5378 19.7767 23.4313 19.5294 23.2235 19.3826C22.7566 19.052 22.1012 19.4228 21.7602 19.882C21.4194 20.3416 21.2351 21.031 20.6888 21.2015C19.1142 21.6923 18.65 20.6018 18.3119 19.5868C18.1319 20.3362 16.4229 20.2111 15.8607 19.6838C15.2985 19.1562 15.2999 18.2153 15.6881 17.5495C16.0765 16.8835 16.7619 16.4477 17.4588 16.1184C17.7145 15.9975 17.9831 15.882 18.1748 15.6744C18.8646 14.9277 18.1223 13.7285 18.264 12.7219C18.4227 11.5966 19.852 10.9341 20.8921 11.3925C21.6683 11.7347 22.2136 12.5323 23.0396 12.7262C23.0474 12.539 25.5451 11.3138 25.6343 12.0026C25.6343 12.0026 26.6716 11.1409 28.4451 11.4292C29.3077 11.5695 30.1558 12.2723 30.2364 13.1425C31.0099 12.9092 31.1683 12.9108 31.9596 13.0737C32.7508 13.2366 33.5045 13.8119 33.6545 14.6057C33.7082 14.8905 33.6844 15.1896 33.7755 15.4648C34.01 16.1757 34.9254 16.3532 35.1957 16.9765C35.5894 17.8839 35.2515 18.7719 35.2055 19.7717C35.1301 21.4082 35.5859 22.7908 33.5018 22.8406C32.1203 22.8737 31.0847 23.6428 30.5242 22.5559C30.2581 22.0394 28.3982 15.3974 27.1937 18.3042Z" fill="black"/>
<path d="M36.2069 21.6774C36.4847 22.7877 36.4636 24.2964 35.9195 25.3035C35.3752 26.3104 34.1097 26.98 33.0426 26.5659C31.6707 26.0339 31.3886 24.2365 31.4245 22.7655C31.447 21.8371 31.524 20.8655 32.0178 20.0791C33.6658 17.4544 35.7483 19.8428 36.2069 21.6774Z" fill="#4B4DF6"/>
<path d="M33.0183 20.0001C32.7806 17.6833 32.0231 15.0962 29.9087 13.8151C28.4194 12.9127 25.599 12.1501 23.0399 12.7259C23.0399 12.7259 23.6927 12.0089 24.413 11.8274C26.5011 11.3013 28.709 11.7266 30.535 12.8434C32.9542 14.3228 33.8948 17.2229 34.1695 19.9018C34.2452 20.6414 33.094 20.7402 33.0183 20.0001Z" fill="#4B4DF6"/>
<path d="M34.023 24.498C33.811 27.4059 31.5917 30.1465 28.6794 30.6656C28.3333 30.7273 28.2889 30.1823 28.6328 30.121C31.3171 29.6429 33.2924 27.0455 33.4854 24.3984C33.5108 24.0484 34.0483 24.1499 34.023 24.498Z" fill="#4B4DF6"/>
<path d="M26.4397 30.3741C26.5002 31.081 27.1224 31.6051 27.8293 31.5445C28.5364 31.484 29.0602 30.8617 28.9997 30.1549C28.9391 29.4481 28.3169 28.924 27.61 28.9845C26.9032 29.0451 26.3791 29.6673 26.4397 30.3741Z" fill="#4B4DF6"/>
<path d="M23.4053 26.3941C23.3836 26.9245 23.1748 27.4498 22.8175 27.8734C22.7097 28.0012 22.5812 28.1438 22.6106 28.3009C22.6611 28.5703 23.0789 28.5842 23.3687 28.5092C23.958 28.3567 24.5217 28.1181 25.0317 27.805C25.0768 27.7773 25.1221 27.7487 25.1555 27.71C25.2114 27.6456 25.2294 27.5607 25.2358 27.4793C25.2744 27.0012 24.9893 26.5637 24.7969 26.1208C24.5803 25.6218 24.416 23.0749 23.5554 23.3392C22.5874 23.636 23.4296 25.8034 23.4053 26.3941Z" fill="#E28E60"/>
<path d="M35.8393 23.5317C35.8792 24.1136 35.8725 24.765 35.4725 25.1896C35.0146 25.6759 34.1052 25.5999 33.7343 25.045C33.5556 24.7775 33.5014 24.4483 33.4541 24.1301C33.3312 23.3008 33.2285 22.4571 33.3392 21.6259C33.4317 20.9323 33.78 20.16 34.4638 20.0125C35.551 19.7784 35.7949 22.8819 35.8393 23.5317Z" fill="#737AFF"/>
<path d="M25.5586 23.8116C25.5977 24.2674 25.8547 24.6173 26.133 24.5935C26.4113 24.5697 26.6051 24.1809 26.5661 23.7253C26.527 23.2695 26.2699 22.9194 25.9917 22.9432C25.7134 22.967 25.5196 23.3561 25.5586 23.8116Z" fill="#241F3F"/>
<path d="M21.3948 25.2241C21.1166 25.2479 20.8595 24.8978 20.8204 24.4422C20.7814 23.9866 20.9753 23.5979 21.2535 23.574C21.5317 23.5502 21.7889 23.9003 21.8279 24.3559C21.8669 24.8116 21.673 25.2003 21.3948 25.2241Z" fill="#241F3F"/>
<path d="M27.2588 21.9907C26.8055 21.6006 26.2131 21.5282 25.6726 21.7766C25.3525 21.9239 25.1651 21.41 25.4828 21.2638C26.1924 20.9375 27.0213 21.0654 27.6106 21.5728C27.8776 21.8025 27.5259 22.2208 27.2588 21.9907Z" fill="#241F3F"/>
<path d="M21.4457 22.3505C21.0309 22.4272 20.6649 22.6146 20.3433 22.8852C20.0737 23.1121 19.7607 22.6635 20.0283 22.4385C20.4262 22.1038 20.8898 21.9001 21.399 21.806C21.7449 21.7421 21.7891 22.2871 21.4457 22.3505Z" fill="#241F3F"/>
<path d="M-22.2019 70.1632L15.9414 66.8966C17.4256 66.7694 18.4721 65.3836 18.1883 63.9213L13.9629 42.1619C13.7186 40.9041 12.565 40.0328 11.2883 40.1422L-26.855 43.4088C-28.3393 43.5359 -29.3857 44.9218 -29.1019 46.3841L-24.8766 68.1435C-24.6323 69.4015 -23.4787 70.2726 -22.2019 70.1632Z" fill="#4B4DF6"/>
<path d="M-23.6411 70.2864L14.5022 67.0197C15.9864 66.8926 17.0329 65.5068 16.7491 64.0445L12.524 42.2851C12.2797 41.0273 11.1261 40.156 9.84943 40.2653L-28.294 43.532C-29.7782 43.6591 -30.8246 45.045 -30.5409 46.5072L-26.3155 68.2666C-26.0715 69.5247 -24.9178 70.3957 -23.6411 70.2864Z" fill="#363C89"/>
</g>
<defs>
<clipPath id="clip0_25_909">
<rect x="0.00543213" y="0.00598145" width="56" height="56" rx="28" fill="white"/>
</clipPath>
</defs>
</svg>
