<svg width="22" height="22" viewBox="0 0 22 22" fill="none" xmlns="http://www.w3.org/2000/svg">
<path d="M10.0913 1.62101C10.4123 0.747449 11.6478 0.747448 11.9687 1.62101L14.0951 7.40825C14.1964 7.68373 14.4135 7.90084 14.6889 8.00206L20.4762 10.1285C21.3497 10.4494 21.3497 11.6849 20.4762 12.0059L14.6889 14.1323C14.4135 14.2335 14.1964 14.4506 14.0951 14.7261L11.9687 20.5134C11.6478 21.3869 10.4123 21.3869 10.0913 20.5134L7.96489 14.7261C7.86367 14.4506 7.64656 14.2335 7.37108 14.1323L1.58384 12.0059C0.710279 11.6849 0.710278 10.4494 1.58384 10.1285L7.37108 8.00206C7.64656 7.90084 7.86367 7.68373 7.96489 7.40825L10.0913 1.62101Z" fill="#FF6B35"/>
</svg>
